<?xml version="1.0" encoding="UTF-8" standalone="no"?>
<!-- Created with Inkscape (http://www.inkscape.org/) -->

<svg
   width="512"
   height="512"
   viewBox="0 0 512 512"
   version="1.1"
   id="svg1"
   xml:space="preserve"
   inkscape:version="1.3.2 (091e20ef0f, 2023-11-25)"
   sodipodi:docname="icon.svg"
   xmlns:inkscape="http://www.inkscape.org/namespaces/inkscape"
   xmlns:sodipodi="http://sodipodi.sourceforge.net/DTD/sodipodi-0.dtd"
   xmlns="http://www.w3.org/2000/svg"
   xmlns:svg="http://www.w3.org/2000/svg"><sodipodi:namedview
     id="namedview1"
     pagecolor="#505050"
     bordercolor="#eeeeee"
     borderopacity="1"
     inkscape:showpageshadow="0"
     inkscape:pageopacity="0"
     inkscape:pagecheckerboard="0"
     inkscape:deskcolor="#505050"
     inkscape:document-units="px"
     inkscape:zoom="1.1117597"
     inkscape:cx="161.45576"
     inkscape:cy="271.1917"
     inkscape:window-width="1920"
     inkscape:window-height="1011"
     inkscape:window-x="1920"
     inkscape:window-y="32"
     inkscape:window-maximized="1"
     inkscape:current-layer="g3" /><defs
     id="defs1" /><g
     inkscape:label="Layer 1"
     inkscape:groupmode="layer"
     id="layer1"><path
       style="fill:#eea01c;fill-opacity:1"
       d="M 87.519837,10.939046 44.426265,425.48795 472.53959,424.40975 Z"
       id="path1"
       sodipodi:nodetypes="cccc" /><path
       style="fill:#f4800c;fill-opacity:1"
       d="M 255.04726,47.775794 44.292553,425.45644 472.89677,424.3646 Z"
       id="path2"
       sodipodi:nodetypes="cccc" /><path
       style="fill:#ffc929;fill-opacity:1"
       d="M 422.85292,84.045895 44.292553,425.45644 253.64399,496.00538 472.89677,424.3646 Z"
       id="path3"
       sodipodi:nodetypes="ccccc" /><g
       id="g3"
       transform="translate(-62.720184,-136.16509)"><path
         d="m 498.31319,488.00819 c 0,0 -0.60033,-3.18686 -0.95128,-3.15809 l -66.83346,5.5794 c -5.31794,0.44431 -9.44817,4.11383 -9.82129,8.7247 l -1.83606,22.7699 -51.70534,3.19165 -3.51696,-20.63626 c -0.78319,-4.5901 -5.41583,-8.05025 -10.77811,-8.05025 h -70.53884 c -5.36042,0 -9.99306,3.46015 -10.77625,8.05025 l -3.51882,20.63626 -51.70534,-3.19165 -1.83606,-22.7699 c -0.37313,-4.61247 -4.50334,-8.28199 -9.82128,-8.7263 l -66.86672,-5.5778 c -0.34541,-0.0287 -0.59847,3.16129 -0.94388,3.16129 l -0.0905,12.51409 56.62983,7.90163 1.85454,22.97286 c 0.37496,4.65083 4.71207,8.41145 10.09096,8.74548 l 71.20936,4.39512 c 0.26968,0.016 0.53567,0.0255 0.80166,0.0255 5.35119,0 9.97644,-3.46176 10.75963,-8.05186 l 3.61856,-21.234 h 51.72934 l 3.61857,21.234 c 0.78134,4.5885 5.41214,8.05026 10.77071,8.05026 0.2623,0 0.52459,-0.008 0.78134,-0.024 l 71.2186,-4.39511 c 5.37704,-0.33403 9.71599,-4.09465 10.09097,-8.74549 l 1.85269,-22.97286 56.60581,-7.93678 z"
         fill="#ffffff"
         id="path1-3"
         style="stroke-width:1.71818" /><path
         d="m 263.11576,431.95155 c 0,19.26179 -18.03738,34.86525 -40.29181,34.86525 -22.24335,0 -40.28628,-15.60346 -40.28628,-34.86525 0,-19.24901 18.04293,-34.84448 40.28628,-34.84448 22.25443,0 40.29181,15.59547 40.29181,34.84448"
         fill="#ffffff"
         id="path4"
         style="stroke-width:1.71818" /><path
         d="m 253.42078,434.01939 c 0,12.77621 -11.96766,23.1311 -26.74484,23.1311 -14.76978,0 -26.74483,-10.35489 -26.74483,-23.1311 0,-12.7762 11.97505,-23.14068 26.74483,-23.14068 14.77718,0 26.74484,10.36448 26.74484,23.14068"
         fill="#414042"
         id="path5"
         style="stroke-width:1.71818" /><path
         d="m 317.59839,469.98865 c -7.16324,0 -12.96883,-4.56773 -12.96883,-10.19827 v -32.09393 c 0,-5.62575 5.80559,-10.19827 12.96883,-10.19827 7.16323,0 12.98174,4.57252 12.98174,10.19827 v 32.09393 c 0,5.63054 -5.81851,10.19827 -12.98174,10.19827"
         fill="#ffffff"
         id="path6"
         style="stroke-width:1.71818" /><path
         d="m 372.08774,431.95155 c 0,19.26179 18.03739,34.86525 40.29551,34.86525 22.24149,0 40.28258,-15.60346 40.28258,-34.86525 0,-19.24901 -18.04109,-34.84448 -40.28258,-34.84448 -22.25812,0 -40.29551,15.59547 -40.29551,34.84448"
         fill="#ffffff"
         id="path7"
         style="stroke-width:1.71818" /><path
         d="m 381.78517,434.01939 c 0,12.77621 11.96397,23.1311 26.73006,23.1311 14.78087,0 26.74484,-10.35489 26.74484,-23.1311 0,-12.7762 -11.96397,-23.14068 -26.74484,-23.14068 -14.76609,0 -26.73006,10.36448 -26.73006,23.14068"
         fill="#414042"
         id="path8"
         style="stroke-width:1.71818" /></g></g></svg>
